<svg width="24" height="24" viewBox="0 0 24 24" fill="none" xmlns="http://www.w3.org/2000/svg">
<path d="M17.6 9H6.4V19.1084C6.4 19.3448 6.47375 19.5716 6.60503 19.7388C6.7363 19.9061 6.91435 20 7.1 20H16.9C17.0857 20 17.2637 19.9061 17.395 19.7388C17.5263 19.5716 17.6 19.3448 17.6 19.1084V9ZM19 6.89164V8H5V6.89164C5 6.65516 5.07375 6.42837 5.20503 6.26116C5.3363 6.09394 5.51435 6 5.7 6H9V4.89164C9 4.65516 9.07375 4.42837 9.20503 4.26116C9.3363 4.09394 9.51435 4 9.7 4H14.3C14.4857 4 14.6637 4.09394 14.795 4.26116C14.9263 4.42837 15 4.65516 15 4.89164V6H18.3C18.4857 6 18.6637 6.09394 18.795 6.26116C18.9263 6.42837 19 6.65516 19 6.89164Z" fill="#424242"/>
</svg>
