<svg width="44" height="29" viewBox="0 0 44 29" fill="none" xmlns="http://www.w3.org/2000/svg">
<path fill-rule="evenodd" clip-rule="evenodd" d="M14.9208 5.56785C16.806 2.6548 20.0854 0.723633 23.8182 0.723633C29.4456 0.723633 34.048 5.11263 34.3888 10.6543C34.5012 10.65 34.614 10.6478 34.7273 10.6478C39.5723 10.6478 43.5 14.5755 43.5 19.4206C43.5 24.2656 39.5723 28.1933 34.7273 28.1933L12 28.1933C5.64873 28.1933 0.5 23.0446 0.5 16.6933C0.5 10.342 5.64873 5.19329 12 5.19329C13.0078 5.19329 13.987 5.32328 14.9208 5.56785ZM28.1712 15.9372C27.6537 16.5841 26.7098 16.6889 26.0629 16.1714L23.5 14.1211V21.0001C23.5 21.8285 22.8284 22.5001 22 22.5001C21.1716 22.5001 20.5 21.8285 20.5 21.0001V14.121L17.937 16.1714C17.2901 16.6889 16.3461 16.5841 15.8286 15.9372C15.3111 15.2903 15.416 14.3463 16.0629 13.8288L21.0575 9.8331C21.312 9.62731 21.6352 9.50308 21.9873 9.50017L22 9.50012L22.0048 9.50013C22.3631 9.50126 22.6917 9.62796 22.9491 9.83852L27.937 13.8288C28.5839 14.3463 28.6888 15.2903 28.1712 15.9372Z" fill="#424242"/>
</svg>
