<svg viewBox="0 0 32 32" xmlns="http://www.w3.org/2000/svg"><g data-name="Layer 67" id="Layer_67"><path d="M25,17H7a.92.92,0,0,0-1,.8v6.4A.92.92,0,0,0,7,25H25a.92.92,0,0,0,1-.8V17.8A.92.92,0,0,0,25,17ZM12.75,22.23a.09.09,0,0,1,0,.05l-.06,0-.09,0h-.31l-.1,0,0,0s0,0,0-.05V20.86H10.93v1.37s0,0,0,.05l-.05,0-.09,0h-.32l-.09,0-.06,0a.09.09,0,0,1,0-.05V19a.09.09,0,0,1,0-.05l.06,0,.09,0h.32l.09,0,.05,0s0,0,0,.05v1.25h1.18V19s0,0,0-.05l0,0,.1,0h.31l.09,0,.06,0a.09.09,0,0,1,0,.05Zm2.79-2.88s0,.06,0,.09l0,0a0,0,0,0,1,0,0h-.79v2.73s0,0,0,.05l-.05,0-.1,0h-.31l-.1,0-.05,0s0,0,0-.05V19.5h-.79a0,0,0,0,1,0,0l0,0s0-.05,0-.09v-.26a.64.64,0,0,1,0-.09l0-.05h2.31l0,.05a.64.64,0,0,1,0,.09Zm4.06,2.88s0,0,0,.05l0,0-.1,0h-.29l-.1,0-.05,0s0,0,0-.05V19.47l-.92,2.76,0,.06-.06,0-.1,0H17.6l-.1,0-.06,0,0-.05-.88-2.76h0v2.76a.09.09,0,0,1,0,.05l-.05,0-.09,0h-.3l-.09,0-.05,0a.09.09,0,0,1,0-.05v-3A.28.28,0,0,1,16,19a.23.23,0,0,1,.18-.07h.42a.55.55,0,0,1,.19,0,.3.3,0,0,1,.14.06.4.4,0,0,1,.1.12,1.31,1.31,0,0,1,.07.19l.68,2h0l.71-2a.75.75,0,0,1,.07-.18.41.41,0,0,1,.08-.13.34.34,0,0,1,.12-.06.41.41,0,0,1,.16,0h.43a.22.22,0,0,1,.12,0l.08.05a.19.19,0,0,1,0,.09.36.36,0,0,1,0,.11ZM22,22.17s0,.06,0,.09l0,0,0,0H20.48a.18.18,0,0,1-.14-.06.19.19,0,0,1-.05-.16V19a.09.09,0,0,1,0-.05l.06,0,.09,0h.32l.09,0,.06,0a.09.09,0,0,1,0,.05v2.73h1l0,.05s0,.05,0,.08ZM23,26h2v1a2,2,0,0,1-2,2H9a2,2,0,0,1-2-2V26H9v1H23ZM9,16H7V5A2,2,0,0,1,9,3H20.41L25,7.59V16H23V9H19a1,1,0,0,1-1-1V5H9Zm16,1H7a.92.92,0,0,0-1,.8v6.4A.92.92,0,0,0,7,25H25a.92.92,0,0,0,1-.8V17.8A.92.92,0,0,0,25,17ZM12.75,22.23a.09.09,0,0,1,0,.05l-.06,0-.09,0h-.31l-.1,0,0,0s0,0,0-.05V20.86H10.93v1.37s0,0,0,.05l-.05,0-.09,0h-.32l-.09,0-.06,0a.09.09,0,0,1,0-.05V19a.09.09,0,0,1,0-.05l.06,0,.09,0h.32l.09,0,.05,0s0,0,0,.05v1.25h1.18V19s0,0,0-.05l0,0,.1,0h.31l.09,0,.06,0a.09.09,0,0,1,0,.05Zm2.79-2.88s0,.06,0,.09l0,0a0,0,0,0,1,0,0h-.79v2.73s0,0,0,.05l-.05,0-.1,0h-.31l-.1,0-.05,0s0,0,0-.05V19.5h-.79a0,0,0,0,1,0,0l0,0s0-.05,0-.09v-.26a.64.64,0,0,1,0-.09l0-.05h2.31l0,.05a.64.64,0,0,1,0,.09Zm4.06,2.88s0,0,0,.05l0,0-.1,0h-.29l-.1,0-.05,0s0,0,0-.05V19.47l-.92,2.76,0,.06-.06,0-.1,0H17.6l-.1,0-.06,0,0-.05-.88-2.76h0v2.76a.09.09,0,0,1,0,.05l-.05,0-.09,0h-.3l-.09,0-.05,0a.09.09,0,0,1,0-.05v-3A.28.28,0,0,1,16,19a.23.23,0,0,1,.18-.07h.42a.55.55,0,0,1,.19,0,.3.3,0,0,1,.14.06.4.4,0,0,1,.1.12,1.31,1.31,0,0,1,.07.19l.68,2h0l.71-2a.75.75,0,0,1,.07-.18.41.41,0,0,1,.08-.13.34.34,0,0,1,.12-.06.41.41,0,0,1,.16,0h.43a.22.22,0,0,1,.12,0l.08.05a.19.19,0,0,1,0,.09.36.36,0,0,1,0,.11ZM22,22.17s0,.06,0,.09l0,0,0,0H20.48a.18.18,0,0,1-.14-.06.19.19,0,0,1-.05-.16V19a.09.09,0,0,1,0-.05l.06,0,.09,0h.32l.09,0,.06,0a.09.09,0,0,1,0,.05v2.73h1l0,.05s0,.05,0,.08Z"/></g></svg>