<svg width="179" height="32" viewBox="0 0 179 32" fill="none" xmlns="http://www.w3.org/2000/svg">
<rect x="9.79996" y="17.8" width="9.8" height="9.8" rx="4.9" transform="rotate(90 9.79996 17.8)" fill="#734AB7"/>
<path d="M4.90002 26.1999C2.96703 26.1999 1.40002 24.6329 1.40002 22.6999C1.40002 20.7669 2.96703 19.1999 4.90002 19.1999C6.83302 19.1999 8.40002 20.7669 8.40002 22.6999C8.40002 24.6329 6.83302 26.1999 4.90002 26.1999Z" fill="white"/>
<rect x="22.4" y="9.39986" width="18.2" height="9.8" rx="4.9" transform="rotate(90 22.4 9.39986)" fill="#734AB7"/>
<path d="M17.5 17.7998C15.567 17.7998 14 16.2328 14 14.2998C14 12.3668 15.567 10.7998 17.5 10.7998C19.433 10.7998 21 12.3668 21 14.2998C21 16.2328 19.433 17.7998 17.5 17.7998Z" fill="white"/>
<rect x="35" y="0.999969" width="26.6" height="9.8" rx="4.9" transform="rotate(90 35 0.999969)" fill="#734AB7"/>
<path d="M30.1 9.39996C28.167 9.39996 26.6 7.83296 26.6 5.89996C26.6 3.96697 28.167 2.39996 30.1 2.39996C32.033 2.39996 33.6 3.96697 33.6 5.89996C33.6 7.83296 32.033 9.39996 30.1 9.39996Z" fill="white"/>
<path d="M56.3949 11.2642C56.2358 10.6847 56.0029 10.142 55.6961 9.63636C55.3892 9.125 55.0086 8.67898 54.554 8.2983C54.1051 7.91193 53.5853 7.6108 52.9943 7.39489C52.4091 7.17898 51.7557 7.07102 51.0341 7.07102C49.8978 7.07102 48.8807 7.36648 47.983 7.95739C47.0853 8.5483 46.375 9.40057 45.8523 10.5142C45.3353 11.6278 45.0767 12.9688 45.0767 14.5369C45.0767 16.0994 45.3381 17.4375 45.8608 18.5511C46.3836 19.6648 47.0995 20.5199 48.0086 21.1165C48.9233 21.7074 49.9688 22.0028 51.1449 22.0028C52.2188 22.0028 53.1676 21.7642 53.9915 21.2869C54.8154 20.8097 55.4574 20.1278 55.9176 19.2415C56.3836 18.3551 56.6108 17.3011 56.5995 16.0795L57.1108 16.2415H51.5199V14.8097H58.1506V16.2415C58.1506 17.7301 57.8495 19.017 57.2472 20.1023C56.6449 21.1875 55.8182 22.0256 54.7671 22.6165C53.7159 23.2074 52.5086 23.5028 51.1449 23.5028C49.6222 23.5028 48.2898 23.1364 47.1478 22.4034C46.0057 21.6648 45.1165 20.625 44.4801 19.2841C43.8495 17.9375 43.5341 16.3551 43.5341 14.5369C43.5341 13.1676 43.7159 11.9318 44.0796 10.8295C44.4432 9.72727 44.9574 8.78409 45.6222 8C46.2926 7.21591 47.0853 6.61648 48 6.20171C48.9148 5.78125 49.9262 5.57102 51.0341 5.57102C51.9887 5.57102 52.8608 5.72159 53.6506 6.02273C54.4461 6.32386 55.1449 6.73864 55.7472 7.26705C56.3551 7.78977 56.8523 8.39489 57.2387 9.08239C57.6307 9.7642 57.8949 10.4915 58.0313 11.2642H56.3949Z" fill="#0C0C0C"/>
<path d="M61.7919 23.2642V10.1733H63.2664V12.1847H63.3772C63.6385 11.5256 64.0931 10.9943 64.7408 10.5909C65.3942 10.1818 66.1328 9.97727 66.9567 9.97727C67.0817 9.97727 67.2209 9.98011 67.3743 9.9858C67.5277 9.99148 67.6556 9.99716 67.7578 10.0028V11.5455C67.6897 11.5341 67.5703 11.517 67.3999 11.4943C67.2294 11.4716 67.0448 11.4602 66.8459 11.4602C66.1641 11.4602 65.5561 11.6051 65.022 11.8949C64.4936 12.179 64.076 12.5739 63.7692 13.0795C63.4624 13.5852 63.309 14.1619 63.309 14.8097V23.2642H61.7919Z" fill="#0C0C0C"/>
<path d="M75.0362 23.5369C73.9056 23.5369 72.9056 23.25 72.0363 22.6761C71.1726 22.1023 70.4965 21.3097 70.0078 20.2983C69.5192 19.2812 69.2749 18.108 69.2749 16.7784C69.2749 15.4375 69.5192 14.2585 70.0078 13.2415C70.4965 12.2188 71.1726 11.4233 72.0363 10.8551C72.9056 10.2813 73.9056 9.99432 75.0362 9.99432C76.1669 9.99432 77.1641 10.2813 78.0277 10.8551C78.8914 11.429 79.5675 12.2244 80.0561 13.2415C80.5505 14.2585 80.7976 15.4375 80.7976 16.7784C80.7976 18.108 80.5533 19.2812 80.0647 20.2983C79.576 21.3097 78.897 22.1023 78.0277 22.6761C77.1641 23.25 76.1669 23.5369 75.0362 23.5369ZM75.0362 22.1477C75.9453 22.1477 76.7152 21.9034 77.3459 21.4148C77.9766 20.9261 78.4539 20.2756 78.7777 19.4631C79.1073 18.6506 79.272 17.7557 79.272 16.7784C79.272 15.8011 79.1073 14.9034 78.7777 14.0852C78.4539 13.267 77.9766 12.6108 77.3459 12.1165C76.7152 11.6222 75.9453 11.375 75.0362 11.375C74.1328 11.375 73.363 11.6222 72.7266 12.1165C72.0959 12.6108 71.6158 13.267 71.2863 14.0852C70.9624 14.9034 70.8005 15.8011 70.8005 16.7784C70.8005 17.7557 70.9624 18.6506 71.2863 19.4631C71.6158 20.2756 72.0959 20.9261 72.7266 21.4148C73.3573 21.9034 74.1272 22.1477 75.0362 22.1477Z" fill="#0C0C0C"/>
<path d="M86.5888 23.2642L82.6343 10.1733H84.2365L87.3388 20.9716H87.4496L90.5434 10.1733H92.1541L95.2223 20.946H95.3416L98.4439 10.1733H100.046L96.0916 23.2642H94.5235L91.4212 12.5341H91.2593L88.157 23.2642H86.5888Z" fill="#0C0C0C"/>
<path d="M108.151 10.1733V11.4943H101.904V10.1733H108.151ZM103.856 7.03693H105.381V19.8466C105.381 20.392 105.475 20.821 105.663 21.1335C105.85 21.4403 106.094 21.6591 106.396 21.7898C106.697 21.9148 107.018 21.9773 107.359 21.9773C107.558 21.9773 107.728 21.9659 107.87 21.9432C108.012 21.9148 108.137 21.8864 108.245 21.858L108.569 23.2301C108.421 23.2869 108.239 23.3381 108.023 23.3835C107.808 23.4347 107.541 23.4602 107.222 23.4602C106.666 23.4602 106.129 23.3381 105.612 23.0938C105.1 22.8494 104.68 22.4858 104.35 22.0028C104.021 21.5199 103.856 20.9205 103.856 20.2045V7.03693Z" fill="#0C0C0C"/>
<path d="M113.395 15.0824V23.2642H111.878V5.80966H113.395V12.2273H113.531C113.838 11.5511 114.313 11.0114 114.955 10.608C115.602 10.2045 116.42 10.0028 117.409 10.0028C118.295 10.0028 119.074 10.1847 119.744 10.5483C120.415 10.9119 120.938 11.4489 121.313 12.1591C121.688 12.8693 121.875 13.7443 121.875 14.7841V23.2642H120.349V14.8778C120.349 13.7983 120.048 12.9489 119.446 12.3295C118.849 11.7045 118.043 11.392 117.026 11.392C116.327 11.392 115.705 11.5398 115.159 11.8352C114.614 12.1307 114.182 12.5568 113.864 13.1136C113.551 13.6648 113.395 14.321 113.395 15.0824Z" fill="#0C0C0C"/>
<path d="M131.256 10.1733V11.4943H124.822V10.1733H131.256ZM126.833 23.2642V8.25568C126.833 7.55114 126.995 6.95739 127.319 6.47443C127.648 5.99148 128.077 5.625 128.606 5.375C129.134 5.125 129.694 5 130.285 5C130.683 5 131.012 5.03409 131.273 5.10227C131.541 5.16477 131.751 5.22727 131.904 5.28977L131.461 6.61932C131.347 6.58523 131.208 6.54545 131.043 6.5C130.879 6.45455 130.671 6.43182 130.421 6.43182C129.762 6.43182 129.254 6.61648 128.896 6.9858C128.538 7.35511 128.359 7.88352 128.359 8.57102L128.35 23.2642H126.833Z" fill="#0C0C0C"/>
<path d="M135.801 5.80966V23.2642H134.284V5.80966H135.801Z" fill="#0C0C0C"/>
<path d="M143.472 23.5625C142.682 23.5625 141.96 23.4091 141.307 23.1023C140.653 22.7898 140.134 22.3409 139.747 21.7557C139.361 21.1648 139.168 20.4489 139.168 19.608C139.168 18.9602 139.29 18.4148 139.534 17.9716C139.778 17.5284 140.125 17.1648 140.574 16.8807C141.023 16.5966 141.554 16.3722 142.168 16.2074C142.781 16.0426 143.457 15.9148 144.196 15.8239C144.929 15.733 145.548 15.6534 146.054 15.5852C146.565 15.517 146.955 15.4091 147.222 15.2614C147.489 15.1136 147.622 14.875 147.622 14.5455V14.2386C147.622 13.3466 147.355 12.6449 146.821 12.1335C146.293 11.6165 145.531 11.358 144.537 11.358C143.594 11.358 142.824 11.5653 142.227 11.9801C141.636 12.3949 141.222 12.8835 140.983 13.446L139.543 12.9261C139.838 12.2102 140.247 11.6392 140.77 11.2131C141.293 10.7813 141.878 10.4716 142.526 10.2841C143.173 10.0909 143.83 9.99432 144.494 9.99432C144.994 9.99432 145.514 10.0597 146.054 10.1903C146.599 10.321 147.105 10.5483 147.571 10.8722C148.037 11.1903 148.415 11.6364 148.705 12.2102C148.994 12.7784 149.139 13.5 149.139 14.375V23.2642H147.622V21.1932H147.528C147.347 21.5795 147.077 21.9545 146.719 22.3182C146.361 22.6818 145.912 22.9801 145.372 23.2131C144.832 23.446 144.199 23.5625 143.472 23.5625ZM143.676 22.1733C144.483 22.1733 145.182 21.9943 145.773 21.6364C146.364 21.2784 146.818 20.804 147.136 20.2131C147.46 19.6165 147.622 18.9602 147.622 18.2443V16.3523C147.509 16.4602 147.318 16.5568 147.051 16.642C146.79 16.7273 146.486 16.804 146.139 16.8722C145.798 16.9347 145.457 16.9886 145.117 17.0341C144.776 17.0795 144.469 17.1193 144.196 17.1534C143.457 17.2443 142.827 17.3864 142.304 17.5795C141.781 17.7727 141.381 18.0398 141.102 18.3807C140.824 18.7159 140.685 19.1477 140.685 19.6761C140.685 20.4716 140.969 21.0881 141.537 21.5256C142.105 21.9574 142.818 22.1733 143.676 22.1733Z" fill="#0C0C0C"/>
<path d="M158.169 28.446C157.277 28.446 156.496 28.3295 155.825 28.0966C155.155 27.8693 154.59 27.5568 154.129 27.1591C153.669 26.7614 153.311 26.3153 153.055 25.821L154.3 25.0028C154.487 25.3324 154.737 25.6563 155.05 25.9744C155.368 26.2926 155.78 26.5568 156.286 26.767C156.797 26.9773 157.425 27.0824 158.169 27.0824C159.328 27.0824 160.263 26.7926 160.973 26.2131C161.689 25.6335 162.047 24.733 162.047 23.5114V20.5625H161.911C161.734 20.9602 161.482 21.358 161.152 21.7557C160.822 22.1477 160.391 22.4744 159.857 22.7358C159.328 22.9972 158.672 23.1278 157.888 23.1278C156.842 23.1278 155.913 22.8693 155.101 22.3523C154.294 21.8352 153.658 21.0966 153.192 20.1364C152.732 19.1705 152.501 18.0199 152.501 16.6847C152.501 15.3608 152.726 14.196 153.175 13.1903C153.629 12.1847 154.263 11.4006 155.075 10.8381C155.888 10.2756 156.834 9.99432 157.913 9.99432C158.715 9.99432 159.379 10.1364 159.908 10.4205C160.436 10.6989 160.859 11.0455 161.178 11.4602C161.501 11.875 161.754 12.2784 161.936 12.6705H162.09V10.1733H163.572V23.6051C163.572 24.7131 163.337 25.625 162.865 26.3409C162.394 27.0568 161.751 27.5852 160.939 27.9261C160.126 28.2727 159.203 28.446 158.169 28.446ZM158.067 21.7386C158.908 21.7386 159.626 21.5369 160.223 21.1335C160.82 20.7244 161.277 20.1392 161.595 19.3778C161.913 18.6165 162.072 17.7102 162.072 16.6591C162.072 15.6364 161.916 14.7301 161.604 13.9403C161.291 13.1449 160.837 12.5199 160.24 12.0653C159.649 11.6051 158.925 11.375 158.067 11.375C157.192 11.375 156.453 11.6108 155.851 12.0824C155.249 12.554 154.794 13.1903 154.487 13.9915C154.18 14.7869 154.027 15.6761 154.027 16.6591C154.027 17.6591 154.183 18.5426 154.496 19.3097C154.808 20.071 155.266 20.6676 155.868 21.0994C156.47 21.5256 157.203 21.7386 158.067 21.7386Z" fill="#0C0C0C"/>
<path d="M176.384 13.0455L174.995 13.4375C174.859 13.0455 174.666 12.6903 174.416 12.3722C174.166 12.054 173.839 11.8011 173.435 11.6136C173.038 11.4261 172.543 11.3324 171.952 11.3324C171.066 11.3324 170.339 11.5426 169.771 11.9631C169.202 12.3835 168.918 12.9261 168.918 13.5909C168.918 14.1534 169.112 14.6108 169.498 14.9631C169.89 15.3097 170.492 15.5852 171.305 15.7898L173.282 16.2756C174.379 16.5426 175.2 16.9659 175.745 17.5455C176.296 18.125 176.572 18.8523 176.572 19.7273C176.572 20.4659 176.367 21.1222 175.958 21.696C175.549 22.2699 174.978 22.7216 174.245 23.0511C173.518 23.375 172.674 23.5369 171.714 23.5369C170.435 23.5369 169.381 23.25 168.552 22.6761C167.722 22.0966 167.191 21.2614 166.958 20.1705L168.416 19.8125C168.603 20.5909 168.969 21.179 169.515 21.5767C170.066 21.9744 170.791 22.1733 171.688 22.1733C172.694 22.1733 173.498 21.9489 174.1 21.5C174.702 21.0455 175.004 20.4773 175.004 19.7955C175.004 19.267 174.827 18.8239 174.475 18.4659C174.123 18.1023 173.589 17.8352 172.873 17.6648L170.734 17.1534C169.597 16.8807 168.756 16.4489 168.211 15.858C167.666 15.267 167.393 14.5341 167.393 13.6591C167.393 12.9375 167.589 12.304 167.981 11.7585C168.373 11.2074 168.913 10.7756 169.6 10.4631C170.288 10.1506 171.072 9.99432 171.952 9.99432C173.151 9.99432 174.109 10.267 174.825 10.8125C175.546 11.3523 176.066 12.0966 176.384 13.0455Z" fill="#0C0C0C"/>
</svg>
